<?xml version="1.0" encoding="UTF-8"?>
<svg width="680" height="680" viewBox="0 0 680 680" xmlns="http://www.w3.org/2000/svg">
<defs>
<linearGradient id="gl" x1="1" y1="0" x2="0" y2="0" gradientUnits="objectBoundingBox">
<stop offset="0%" stop-color="#00BFFF"/>
<stop offset="100%" stop-color="#00FFAB"/>
</linearGradient>
<linearGradient id="gr" x1="0" y1="0" x2="1" y2="0" gradientUnits="objectBoundingBox">
<stop offset="0%" stop-color="#00BFFF"/>
<stop offset="100%" stop-color="#00FFAB"/>
</linearGradient>
</defs>
<rect width="680" height="680" fill="#000000"/>
<rect x="193.8" y="72.0" width="21.2" height="6.0" fill="url(#gl)"/>
<rect x="215" y="72.0" width="323.3" height="6.0" fill="url(#gr)"/>
<rect x="176.9" y="78.0" width="38.1" height="6.2" fill="url(#gl)"/>
<rect x="215" y="78.0" width="137.2" height="6.2" fill="url(#gr)"/>
<rect x="160.5" y="84.2" width="54.5" height="8.5" fill="url(#gl)"/>
<rect x="215" y="84.2" width="289.7" height="8.5" fill="url(#gr)"/>
<rect x="178.0" y="92.7" width="37.0" height="10.4" fill="url(#gl)"/>
<rect x="215" y="92.7" width="294.5" height="10.4" fill="url(#gr)"/>
<rect x="196.5" y="103.1" width="18.5" height="8.3" fill="url(#gl)"/>
<rect x="215" y="103.1" width="307.7" height="8.3" fill="url(#gr)"/>
<rect x="166.7" y="111.4" width="48.3" height="8.8" fill="url(#gl)"/>
<rect x="215" y="111.4" width="340.8" height="8.8" fill="url(#gr)"/>
<rect x="164.1" y="120.2" width="50.9" height="9.8" fill="url(#gl)"/>
<rect x="215" y="120.2" width="156.7" height="9.8" fill="url(#gr)"/>
<rect x="190.7" y="130.0" width="24.3" height="7.8" fill="url(#gl)"/>
<rect x="215" y="130.0" width="252.8" height="7.8" fill="url(#gr)"/>
<rect x="177.7" y="138.1" width="37.3" height="13.2" fill="url(#gl)"/>
<rect x="215" y="138.1" width="283.6" height="13.2" fill="url(#gr)"/>
<rect x="172.4" y="151.3" width="42.6" height="10.6" fill="url(#gl)"/>
<rect x="215" y="151.3" width="267.9" height="10.6" fill="url(#gr)"/>
<rect x="168.9" y="161.8" width="46.1" height="11.1" fill="url(#gl)"/>
<rect x="215" y="161.8" width="283.5" height="11.1" fill="url(#gr)"/>
<rect x="187.1" y="172.9" width="27.9" height="11.3" fill="url(#gl)"/>
<rect x="215" y="172.9" width="216.4" height="11.3" fill="url(#gr)"/>
<rect x="191.5" y="184.7" width="23.5" height="10.6" fill="url(#gl)"/>
<rect x="215" y="184.7" width="18.6" height="10.6" fill="url(#gr)"/>
<rect x="185.6" y="195.2" width="29.4" height="7.0" fill="url(#gl)"/>
<rect x="215" y="195.2" width="6.9" height="7.0" fill="url(#gr)"/>
<rect x="186.6" y="202.2" width="28.4" height="9.3" fill="url(#gl)"/>
<rect x="215" y="202.2" width="8.4" height="9.3" fill="url(#gr)"/>
<rect x="190.8" y="211.9" width="24.2" height="9.3" fill="url(#gl)"/>
<rect x="215" y="211.9" width="10.6" height="9.3" fill="url(#gr)"/>
<rect x="175.6" y="221.3" width="39.4" height="7.7" fill="url(#gl)"/>
<rect x="215" y="221.3" width="47.7" height="7.7" fill="url(#gr)"/>
<rect x="163.9" y="228.9" width="51.1" height="12.7" fill="url(#gl)"/>
<rect x="215" y="228.9" width="19.1" height="12.7" fill="url(#gr)"/>
<rect x="197.4" y="241.6" width="17.6" height="10.6" fill="url(#gl)"/>
<rect x="215" y="241.6" width="8.6" height="10.6" fill="url(#gr)"/>
<rect x="194.5" y="252.6" width="20.5" height="13.3" fill="url(#gl)"/>
<rect x="215" y="252.6" width="8.6" height="13.3" fill="url(#gr)"/>
<rect x="191.0" y="265.9" width="24.0" height="9.7" fill="url(#gl)"/>
<rect x="215" y="265.9" width="12.3" height="9.7" fill="url(#gr)"/>
<rect x="157.8" y="275.6" width="57.2" height="13.1" fill="url(#gl)"/>
<rect x="215" y="275.6" width="10.7" height="13.1" fill="url(#gr)"/>
<rect x="177.4" y="288.7" width="37.6" height="9.0" fill="url(#gl)"/>
<rect x="215" y="288.7" width="15.2" height="9.0" fill="url(#gr)"/>
<rect x="162.4" y="297.7" width="52.6" height="8.6" fill="url(#gl)"/>
<rect x="215" y="297.7" width="106.2" height="8.6" fill="url(#gr)"/>
<rect x="191.5" y="306.3" width="23.5" height="13.9" fill="url(#gl)"/>
<rect x="215" y="306.3" width="236.7" height="13.9" fill="url(#gr)"/>
<rect x="157.0" y="320.2" width="58.0" height="8.5" fill="url(#gl)"/>
<rect x="215" y="320.2" width="271.8" height="8.5" fill="url(#gr)"/>
<rect x="182.9" y="328.7" width="32.1" height="8.4" fill="url(#gl)"/>
<rect x="215" y="328.7" width="238.8" height="8.4" fill="url(#gr)"/>
<rect x="185.7" y="337.2" width="29.3" height="9.7" fill="url(#gl)"/>
<rect x="215" y="337.2" width="203.0" height="9.7" fill="url(#gr)"/>
<rect x="157.0" y="346.8" width="58.0" height="9.4" fill="url(#gl)"/>
<rect x="215" y="346.8" width="204.8" height="9.4" fill="url(#gr)"/>
<rect x="180.3" y="356.2" width="34.7" height="13.0" fill="url(#gl)"/>
<rect x="215" y="356.2" width="248.4" height="13.0" fill="url(#gr)"/>
<rect x="177.3" y="369.2" width="37.7" height="10.2" fill="url(#gl)"/>
<rect x="215" y="369.2" width="210.0" height="10.2" fill="url(#gr)"/>
<rect x="157.9" y="379.4" width="57.1" height="13.7" fill="url(#gl)"/>
<rect x="215" y="379.4" width="216.8" height="13.7" fill="url(#gr)"/>
<rect x="198.5" y="393.3" width="16.5" height="7.0" fill="url(#gl)"/>
<rect x="215" y="393.3" width="93.2" height="7.0" fill="url(#gr)"/>
<rect x="174.3" y="400.3" width="40.7" height="9.4" fill="url(#gl)"/>
<rect x="215" y="400.3" width="33.4" height="9.4" fill="url(#gr)"/>
<rect x="157.0" y="409.6" width="58.0" height="13.3" fill="url(#gl)"/>
<rect x="215" y="409.6" width="16.8" height="13.3" fill="url(#gr)"/>
<rect x="192.4" y="422.9" width="22.6" height="13.6" fill="url(#gl)"/>
<rect x="215" y="422.9" width="7.2" height="13.6" fill="url(#gr)"/>
<rect x="158.0" y="436.5" width="57.0" height="12.9" fill="url(#gl)"/>
<rect x="215" y="436.5" width="15.6" height="12.9" fill="url(#gr)"/>
<rect x="193.9" y="449.4" width="21.1" height="11.2" fill="url(#gl)"/>
<rect x="215" y="449.4" width="19.4" height="11.2" fill="url(#gr)"/>
<rect x="181.3" y="460.6" width="33.7" height="9.0" fill="url(#gl)"/>
<rect x="215" y="460.6" width="14.7" height="9.0" fill="url(#gr)"/>
<rect x="171.7" y="469.6" width="43.3" height="9.4" fill="url(#gl)"/>
<rect x="215" y="469.6" width="19.2" height="9.4" fill="url(#gr)"/>
<rect x="189.6" y="479.0" width="25.4" height="10.1" fill="url(#gl)"/>
<rect x="215" y="479.0" width="9.0" height="10.1" fill="url(#gr)"/>
<rect x="157.0" y="489.1" width="58.0" height="13.0" fill="url(#gl)"/>
<rect x="215" y="489.1" width="19.4" height="13.0" fill="url(#gr)"/>
<rect x="190.5" y="502.1" width="24.5" height="8.3" fill="url(#gl)"/>
<rect x="215" y="502.1" width="57.9" height="8.3" fill="url(#gr)"/>
<rect x="184.7" y="510.4" width="30.3" height="6.8" fill="url(#gl)"/>
<rect x="215" y="510.4" width="163.6" height="6.8" fill="url(#gr)"/>
<rect x="182.6" y="517.2" width="32.4" height="9.5" fill="url(#gl)"/>
<rect x="215" y="517.2" width="274.9" height="9.5" fill="url(#gr)"/>
<rect x="177.1" y="526.7" width="37.9" height="8.6" fill="url(#gl)"/>
<rect x="215" y="526.7" width="272.1" height="8.6" fill="url(#gr)"/>
<rect x="187.0" y="535.4" width="28.0" height="9.6" fill="url(#gl)"/>
<rect x="215" y="535.4" width="288.9" height="9.6" fill="url(#gr)"/>
<rect x="183.5" y="545.0" width="31.5" height="13.2" fill="url(#gl)"/>
<rect x="215" y="545.0" width="300.2" height="13.2" fill="url(#gr)"/>
<rect x="198.4" y="558.3" width="16.6" height="6.2" fill="url(#gl)"/>
<rect x="215" y="558.3" width="282.7" height="6.2" fill="url(#gr)"/>
<rect x="169.4" y="564.8" width="45.6" height="13.8" fill="url(#gl)"/>
<rect x="215" y="564.8" width="341.1" height="13.8" fill="url(#gr)"/>
<rect x="193.1" y="578.6" width="21.9" height="8.0" fill="url(#gl)"/>
<rect x="215" y="578.6" width="325.5" height="8.0" fill="url(#gr)"/>
<rect x="172.9" y="586.5" width="42.1" height="11.2" fill="url(#gl)"/>
<rect x="215" y="586.5" width="251.4" height="11.2" fill="url(#gr)"/>
<rect x="164.1" y="597.8" width="50.9" height="9.6" fill="url(#gl)"/>
<rect x="215" y="597.8" width="326.9" height="9.6" fill="url(#gr)"/>
<rect x="179.8" y="607.4" width="35.2" height="9.2" fill="url(#gl)"/>
<rect x="215" y="607.4" width="267.0" height="9.2" fill="url(#gr)"/>
<rect x="167.2" y="74.7" width="47.8" height="4.7" fill="url(#gl)"/>
<rect x="215" y="74.7" width="331.4" height="4.7" fill="url(#gr)"/>
<rect x="148.9" y="82.0" width="66.1" height="2.3" fill="url(#gl)"/>
<rect x="215" y="82.0" width="344.0" height="2.3" fill="url(#gr)"/>
<rect x="161.6" y="90.0" width="53.4" height="4.0" fill="url(#gl)"/>
<rect x="215" y="90.0" width="267.7" height="4.0" fill="url(#gr)"/>
<rect x="174.1" y="97.5" width="40.9" height="2.4" fill="url(#gl)"/>
<rect x="215" y="97.5" width="272.6" height="2.4" fill="url(#gr)"/>
<rect x="159.5" y="104.4" width="55.5" height="4.8" fill="url(#gl)"/>
<rect x="215" y="104.4" width="268.8" height="4.8" fill="url(#gr)"/>
<rect x="179.8" y="114.2" width="35.2" height="3.0" fill="url(#gl)"/>
<rect x="215" y="114.2" width="324.9" height="3.0" fill="url(#gr)"/>
<rect x="151.0" y="122.0" width="64.0" height="2.3" fill="url(#gl)"/>
<rect x="215" y="122.0" width="376.2" height="2.3" fill="url(#gr)"/>
<rect x="148.0" y="127.6" width="67.0" height="5.0" fill="url(#gl)"/>
<rect x="215" y="127.6" width="323.4" height="5.0" fill="url(#gr)"/>
<rect x="166.5" y="135.9" width="48.5" height="2.2" fill="url(#gl)"/>
<rect x="215" y="135.9" width="385.7" height="2.2" fill="url(#gr)"/>
<rect x="182.6" y="145.5" width="32.4" height="4.2" fill="url(#gl)"/>
<rect x="215" y="145.5" width="341.8" height="4.2" fill="url(#gr)"/>
<rect x="160.8" y="154.3" width="54.2" height="3.4" fill="url(#gl)"/>
<rect x="215" y="154.3" width="317.9" height="3.4" fill="url(#gr)"/>
<rect x="175.9" y="164.1" width="39.1" height="4.8" fill="url(#gl)"/>
<rect x="215" y="164.1" width="293.1" height="4.8" fill="url(#gr)"/>
<rect x="177.0" y="175.0" width="38.0" height="2.3" fill="url(#gl)"/>
<rect x="215" y="175.0" width="189.0" height="2.3" fill="url(#gr)"/>
<rect x="150.4" y="181.5" width="64.6" height="4.7" fill="url(#gl)"/>
<rect x="215" y="181.5" width="89.2" height="4.7" fill="url(#gr)"/>
<rect x="192.1" y="275.4" width="22.9" height="2.2" fill="url(#gl)"/>
<rect x="215" y="275.4" width="20.2" height="2.2" fill="url(#gr)"/>
<rect x="159.2" y="292.5" width="55.8" height="4.8" fill="url(#gl)"/>
<rect x="215" y="292.5" width="47.2" height="4.8" fill="url(#gr)"/>
<rect x="169.7" y="302.7" width="45.3" height="2.8" fill="url(#gl)"/>
<rect x="215" y="302.7" width="185.4" height="2.8" fill="url(#gr)"/>
<rect x="169.6" y="313.0" width="45.4" height="4.5" fill="url(#gl)"/>
<rect x="215" y="313.0" width="273.9" height="4.5" fill="url(#gr)"/>
<rect x="167.8" y="324.6" width="47.2" height="3.3" fill="url(#gl)"/>
<rect x="215" y="324.6" width="241.6" height="3.3" fill="url(#gr)"/>
<rect x="181.7" y="331.5" width="33.3" height="3.2" fill="url(#gl)"/>
<rect x="215" y="331.5" width="270.8" height="3.2" fill="url(#gr)"/>
<rect x="149.0" y="340.3" width="66.0" height="1.6" fill="url(#gl)"/>
<rect x="215" y="340.3" width="278.5" height="1.6" fill="url(#gr)"/>
<rect x="182.7" y="346.9" width="32.3" height="1.5" fill="url(#gl)"/>
<rect x="215" y="346.9" width="274.4" height="1.5" fill="url(#gr)"/>
<rect x="156.0" y="354.6" width="59.0" height="1.6" fill="url(#gl)"/>
<rect x="215" y="354.6" width="282.3" height="1.6" fill="url(#gr)"/>
<rect x="169.0" y="361.8" width="46.0" height="1.9" fill="url(#gl)"/>
<rect x="215" y="361.8" width="253.9" height="1.9" fill="url(#gr)"/>
<rect x="170.6" y="366.9" width="44.4" height="3.1" fill="url(#gl)"/>
<rect x="215" y="366.9" width="244.6" height="3.1" fill="url(#gr)"/>
<rect x="167.1" y="375.3" width="47.9" height="2.3" fill="url(#gl)"/>
<rect x="215" y="375.3" width="293.5" height="2.3" fill="url(#gr)"/>
<rect x="167.4" y="380.8" width="47.6" height="3.6" fill="url(#gl)"/>
<rect x="215" y="380.8" width="273.2" height="3.6" fill="url(#gr)"/>
<rect x="175.9" y="388.1" width="39.1" height="3.7" fill="url(#gl)"/>
<rect x="215" y="388.1" width="196.7" height="3.7" fill="url(#gr)"/>
<rect x="151.2" y="394.2" width="63.8" height="2.2" fill="url(#gl)"/>
<rect x="215" y="394.2" width="107.6" height="2.2" fill="url(#gr)"/>
<rect x="201.6" y="410.4" width="13.4" height="2.0" fill="url(#gl)"/>
<rect x="215" y="410.4" width="32.9" height="2.0" fill="url(#gr)"/>
<rect x="198.0" y="430.0" width="17.0" height="4.6" fill="url(#gl)"/>
<rect x="215" y="430.0" width="35.7" height="4.6" fill="url(#gr)"/>
<rect x="191.9" y="467.5" width="23.1" height="1.8" fill="url(#gl)"/>
<rect x="215" y="467.5" width="23.3" height="1.8" fill="url(#gr)"/>
<rect x="162.0" y="503.5" width="53.0" height="1.7" fill="url(#gl)"/>
<rect x="215" y="503.5" width="94.4" height="1.7" fill="url(#gr)"/>
<rect x="181.4" y="507.6" width="33.6" height="3.6" fill="url(#gl)"/>
<rect x="215" y="507.6" width="163.7" height="3.6" fill="url(#gr)"/>
<rect x="176.4" y="513.3" width="38.6" height="3.1" fill="url(#gl)"/>
<rect x="215" y="513.3" width="250.1" height="3.1" fill="url(#gr)"/>
<rect x="147.6" y="520.6" width="67.4" height="3.5" fill="url(#gl)"/>
<rect x="215" y="520.6" width="344.2" height="3.5" fill="url(#gr)"/>
<rect x="171.9" y="530.9" width="43.1" height="3.6" fill="url(#gl)"/>
<rect x="215" y="530.9" width="346.4" height="3.6" fill="url(#gr)"/>
<rect x="171.2" y="536.7" width="43.8" height="3.5" fill="url(#gl)"/>
<rect x="215" y="536.7" width="309.1" height="3.5" fill="url(#gr)"/>
<rect x="157.4" y="545.1" width="57.6" height="3.1" fill="url(#gl)"/>
<rect x="215" y="545.1" width="324.5" height="3.1" fill="url(#gr)"/>
<rect x="161.7" y="553.3" width="53.3" height="4.6" fill="url(#gl)"/>
<rect x="215" y="553.3" width="319.8" height="4.6" fill="url(#gr)"/>
<rect x="170.6" y="561.0" width="44.4" height="4.3" fill="url(#gl)"/>
<rect x="215" y="561.0" width="300.6" height="4.3" fill="url(#gr)"/>
<rect x="163.8" y="570.9" width="51.2" height="2.1" fill="url(#gl)"/>
<rect x="215" y="570.9" width="319.4" height="2.1" fill="url(#gr)"/>
<rect x="178.3" y="579.9" width="36.7" height="1.9" fill="url(#gl)"/>
<rect x="215" y="579.9" width="314.5" height="1.9" fill="url(#gr)"/>
<rect x="168.2" y="589.1" width="46.8" height="3.0" fill="url(#gl)"/>
<rect x="215" y="589.1" width="322.1" height="3.0" fill="url(#gr)"/>
<rect x="165.0" y="595.0" width="50.0" height="2.7" fill="url(#gl)"/>
<rect x="215" y="595.0" width="293.7" height="2.7" fill="url(#gr)"/>
<rect x="147.6" y="604.8" width="67.4" height="3.4" fill="url(#gl)"/>
<rect x="215" y="604.8" width="303.8" height="3.4" fill="url(#gr)"/>
<rect x="210.5" y="75.8" width="4.5" height="1.0" fill="url(#gl)"/>
<rect x="215" y="75.8" width="328.6" height="1.0" fill="url(#gr)"/>
<rect x="211.4" y="90.1" width="3.6" height="2.1" fill="url(#gl)"/>
<rect x="215" y="90.1" width="316.3" height="2.1" fill="url(#gr)"/>
<rect x="207.7" y="103.9" width="7.3" height="2.1" fill="url(#gl)"/>
<rect x="215" y="103.9" width="336.4" height="2.1" fill="url(#gr)"/>
<rect x="210.4" y="107.5" width="4.6" height="0.7" fill="url(#gl)"/>
<rect x="215" y="107.5" width="315.6" height="0.7" fill="url(#gr)"/>
<rect x="207.0" y="128.5" width="8.0" height="1.8" fill="url(#gl)"/>
<rect x="215" y="128.5" width="318.0" height="1.8" fill="url(#gr)"/>
<rect x="205.8" y="296.5" width="9.2" height="2.4" fill="url(#gl)"/>
<rect x="215" y="296.5" width="101.8" height="2.4" fill="url(#gr)"/>
<rect x="201.6" y="310.0" width="13.4" height="0.7" fill="url(#gl)"/>
<rect x="215" y="310.0" width="254.1" height="0.7" fill="url(#gr)"/>
<rect x="208.2" y="318.7" width="6.8" height="1.4" fill="url(#gl)"/>
<rect x="215" y="318.7" width="281.5" height="1.4" fill="url(#gr)"/>
<rect x="208.0" y="396.2" width="7.0" height="0.8" fill="url(#gl)"/>
<rect x="215" y="396.2" width="78.0" height="0.8" fill="url(#gr)"/>
<rect x="204.6" y="527.5" width="10.4" height="1.4" fill="url(#gl)"/>
<rect x="215" y="527.5" width="344.7" height="1.4" fill="url(#gr)"/>
<rect x="206.0" y="539.6" width="9.0" height="2.1" fill="url(#gl)"/>
<rect x="215" y="539.6" width="310.6" height="2.1" fill="url(#gr)"/>
<rect x="206.5" y="547.5" width="8.5" height="0.7" fill="url(#gl)"/>
<rect x="215" y="547.5" width="331.9" height="0.7" fill="url(#gr)"/>
<rect x="200.1" y="552.8" width="14.9" height="2.3" fill="url(#gl)"/>
<rect x="215" y="552.8" width="326.1" height="2.3" fill="url(#gr)"/>
<rect x="207.7" y="570.0" width="7.3" height="0.6" fill="url(#gl)"/>
<rect x="215" y="570.0" width="330.0" height="0.6" fill="url(#gr)"/>
<rect x="209.4" y="575.0" width="5.6" height="1.4" fill="url(#gl)"/>
<rect x="215" y="575.0" width="327.4" height="1.4" fill="url(#gr)"/>
<rect x="202.1" y="594.0" width="12.9" height="1.6" fill="url(#gl)"/>
<rect x="215" y="594.0" width="342.2" height="1.6" fill="url(#gr)"/>
</svg>