<?xml version="1.0" encoding="UTF-8"?>
<svg id="Layer_1" xmlns="http://www.w3.org/2000/svg" version="1.1" viewBox="0 0 673.43 288.49">
  <!-- Generator: Adobe Illustrator 30.3.0, SVG Export Plug-In . SVG Version: 2.1.3 Build 182)  -->
  <defs>
    <style>
      .st0 {
        fill: #0062b1;
      }

      .st1 {
        fill: #029cff;
      }
    </style>
  </defs>
  <g>
    <path class="st1" d="M81.64,226.87c-14.48,0-27.11-3.6-37.9-10.79-10.79-7.19-19.13-17.04-25.03-29.55-5.9-12.51-8.85-26.78-8.85-42.79s2.95-30.3,8.85-42.86c5.9-12.56,14.02-22.44,24.38-29.63s22.15-10.79,35.38-10.79c9.11,0,17.71,1.8,25.82,5.39,8.1,3.6,15.25,8.82,21.43,15.68,6.18,6.86,11.05,15.17,14.6,24.95,3.55,9.78,5.32,20.95,5.32,33.51v6.04H18.07v-11.65h120.52l-6.04,4.6c0-12.46-2.25-23.73-6.76-33.8-4.51-10.07-10.81-18.03-18.91-23.88-8.1-5.85-17.57-8.77-28.41-8.77s-20.02,2.97-28.41,8.92c-8.39,5.95-14.98,13.95-19.78,24.02-4.8,10.07-7.19,21.29-7.19,33.65v5.32c0,13.42,2.32,25.43,6.98,36.03,4.65,10.6,11.36,18.96,20.14,25.1,8.77,6.14,19.25,9.2,31.43,9.2,8.82,0,16.32-1.46,22.51-4.38,6.18-2.92,11.27-6.54,15.25-10.86,3.98-4.31,6.98-8.44,8.99-12.37l11.94,4.75c-2.4,5.37-6.18,10.74-11.36,16.11-5.18,5.37-11.7,9.85-19.56,13.45-7.86,3.6-17.12,5.39-27.76,5.39Z"/>
    <path class="st0" d="M309.74,283.54h-13.09v-95.21h-1.29c-2.4,6.9-5.95,13.28-10.64,19.13-4.7,5.85-10.48,10.55-17.33,14.09-6.86,3.55-14.84,5.32-23.95,5.32-12.85,0-24.09-3.57-33.73-10.71-9.64-7.14-17.09-16.99-22.36-29.56-5.27-12.56-7.91-26.94-7.91-43.15s2.66-30.42,7.98-42.93c5.32-12.51,12.8-22.31,22.44-29.41,9.64-7.09,20.83-10.64,33.58-10.64,9.21,0,17.23,1.73,24.09,5.18,6.85,3.45,12.63,8.08,17.33,13.88,4.7,5.8,8.2,12.15,10.5,19.06h1.58v-35.96h12.8v220.91ZM244.73,214.79c10.83,0,20.14-3.11,27.9-9.35,7.77-6.23,13.74-14.74,17.91-25.53s6.26-22.99,6.26-36.6-2.09-25.74-6.26-36.39-10.14-19.03-17.91-25.17c-7.77-6.13-17.07-9.2-27.9-9.2s-20.28,3.12-28.05,9.35c-7.77,6.23-13.71,14.7-17.83,25.38-4.12,10.69-6.18,22.7-6.18,36.03s2.06,25.53,6.18,36.32c4.12,10.79,10.07,19.34,17.83,25.67,7.77,6.33,17.11,9.49,28.05,9.49Z"/>
    <path class="st1" d="M375.76,119.44v103.98h-12.94V9.12h12.94v89.46h-2.59c3.93-13.13,10.81-22.77,20.64-28.91,9.83-6.13,20.83-9.21,33.01-9.21,10.93,0,20.57,2.28,28.91,6.83,8.34,4.55,14.86,11.07,19.56,19.56,4.7,8.48,7.05,18.67,7.05,30.56v106h-13.09v-105.28c0-13.81-4.15-24.86-12.44-33.15-8.29-8.29-19.15-12.44-32.58-12.44-9.21,0-17.47,1.96-24.81,5.9-7.34,3.93-13.11,9.4-17.33,16.39-4.22,7-6.33,15.2-6.33,24.6Z"/>
    <path class="st1" d="M595.23,226.87c-13.23,0-25.05-3.6-35.45-10.79-10.4-7.19-18.58-17.04-24.52-29.55-5.95-12.51-8.92-26.82-8.92-42.93s2.97-30.42,8.92-42.93c5.94-12.51,14.12-22.34,24.52-29.48,10.4-7.14,22.22-10.71,35.45-10.71s25.17,3.57,35.52,10.71c10.35,7.14,18.5,17,24.45,29.56,5.94,12.56,8.92,26.85,8.92,42.86s-2.97,30.42-8.92,42.93c-5.95,12.51-14.1,22.36-24.45,29.55-10.36,7.19-22.2,10.79-35.52,10.79ZM595.23,214.79c11.22,0,21-3.16,29.34-9.49s14.81-14.88,19.42-25.67,6.9-22.8,6.9-36.03-2.3-25.1-6.9-35.88-11.07-19.34-19.42-25.67-18.12-9.49-29.34-9.49-20.85,3.19-29.2,9.56c-8.34,6.38-14.84,14.91-19.49,25.6-4.65,10.69-6.98,22.65-6.98,35.88s2.32,25.24,6.98,36.03c4.65,10.79,11.15,19.34,19.49,25.67s18.07,9.49,29.2,9.49Z"/>
  </g>
  <g>
    <path class="st0" d="M81.64-143.9c-14.48,0-27.11-3.6-37.9-10.79-10.79-7.19-19.13-17.04-25.03-29.56-5.9-12.51-8.85-26.77-8.85-42.79s2.95-30.3,8.85-42.86c5.9-12.56,14.02-22.44,24.38-29.63s22.15-10.79,35.38-10.79c9.11,0,17.71,1.8,25.82,5.39,8.1,3.6,15.25,8.82,21.43,15.68,6.18,6.86,11.05,15.17,14.6,24.95,3.55,9.78,5.32,20.95,5.32,33.51v6.04H18.07v-11.65h120.52l-6.04,4.6c0-12.46-2.25-23.73-6.76-33.8-4.51-10.07-10.81-18.03-18.91-23.88-8.1-5.85-17.57-8.77-28.41-8.77s-20.02,2.97-28.41,8.92c-8.39,5.95-14.98,13.95-19.78,24.02-4.8,10.07-7.19,21.29-7.19,33.65v5.32c0,13.42,2.32,25.43,6.98,36.03,4.65,10.6,11.36,18.96,20.14,25.1,8.77,6.14,19.25,9.2,31.43,9.2,8.82,0,16.32-1.46,22.51-4.39,6.18-2.92,11.27-6.54,15.25-10.86,3.98-4.31,6.98-8.44,8.99-12.37l11.94,4.75c-2.4,5.37-6.18,10.74-11.36,16.11-5.18,5.37-11.7,9.85-19.56,13.45-7.86,3.6-17.12,5.39-27.76,5.39Z"/>
    <path class="st1" d="M309.74-87.23h-13.09v-95.21h-1.29c-2.4,6.9-5.95,13.28-10.64,19.13-4.7,5.85-10.48,10.55-17.33,14.09-6.86,3.55-14.84,5.32-23.95,5.32-12.85,0-24.09-3.57-33.73-10.71-9.64-7.14-17.09-16.99-22.36-29.56-5.27-12.56-7.91-26.94-7.91-43.15s2.66-30.42,7.98-42.93c5.32-12.51,12.8-22.32,22.44-29.41,9.64-7.09,20.83-10.64,33.58-10.64,9.21,0,17.23,1.73,24.09,5.18,6.85,3.45,12.63,8.08,17.33,13.88,4.7,5.8,8.2,12.15,10.5,19.06h1.58v-35.96h12.8V-87.23ZM244.73-155.98c10.83,0,20.14-3.11,27.9-9.35,7.77-6.23,13.74-14.74,17.91-25.53s6.26-22.99,6.26-36.6-2.09-25.74-6.26-36.39c-4.17-10.64-10.14-19.03-17.91-25.17-7.77-6.13-17.07-9.2-27.9-9.2s-20.28,3.12-28.05,9.35c-7.77,6.23-13.71,14.69-17.83,25.38-4.12,10.69-6.18,22.7-6.18,36.03s2.06,25.53,6.18,36.32c4.12,10.79,10.07,19.34,17.83,25.67,7.77,6.33,17.11,9.49,28.05,9.49Z"/>
    <path class="st0" d="M375.76-251.34v103.98h-12.94v-214.3h12.94v89.46h-2.59c3.93-13.14,10.81-22.77,20.64-28.91,9.83-6.13,20.83-9.21,33.01-9.21,10.93,0,20.57,2.28,28.91,6.83,8.34,4.56,14.86,11.07,19.56,19.56,4.7,8.49,7.05,18.67,7.05,30.56v106h-13.09v-105.28c0-13.81-4.15-24.86-12.44-33.15-8.29-8.29-19.15-12.44-32.58-12.44-9.21,0-17.47,1.97-24.81,5.9-7.34,3.93-13.11,9.4-17.33,16.4-4.22,7-6.33,15.2-6.33,24.59Z"/>
    <path class="st0" d="M595.23-143.9c-13.23,0-25.05-3.6-35.45-10.79-10.4-7.19-18.58-17.04-24.52-29.56-5.95-12.51-8.92-26.82-8.92-42.93s2.97-30.42,8.92-42.93c5.94-12.51,14.12-22.34,24.52-29.48,10.4-7.14,22.22-10.72,35.45-10.72s25.17,3.57,35.52,10.72c10.35,7.14,18.5,17,24.45,29.56,5.94,12.56,8.92,26.85,8.92,42.86s-2.97,30.42-8.92,42.93c-5.95,12.51-14.1,22.36-24.45,29.56-10.36,7.19-22.2,10.79-35.52,10.79ZM595.23-155.98c11.22,0,21-3.16,29.34-9.49s14.81-14.89,19.42-25.67c4.6-10.79,6.9-22.8,6.9-36.03s-2.3-25.1-6.9-35.88c-4.6-10.79-11.07-19.34-19.42-25.67s-18.12-9.49-29.34-9.49-20.85,3.19-29.2,9.56c-8.34,6.38-14.84,14.91-19.49,25.6-4.65,10.69-6.98,22.65-6.98,35.88s2.32,25.24,6.98,36.03c4.65,10.79,11.15,19.34,19.49,25.67s18.07,9.49,29.2,9.49Z"/>
  </g>
  <rect class="st1" x="2190.4" y="-2520.61" width="685.73" height="69.97"/>
  <path class="st0" d="M2864.75-2956.6v170.01c-28.41-48.29-63.67-88-105.81-119.04-57.88-42.62-125.11-63.94-201.71-63.94-2.32,0-4.61.04-6.91.08-2.3-.04-4.59-.08-6.91-.08-76.6,0-143.83,21.31-201.71,63.94-42.14,31.05-77.39,70.75-105.81,119.04v-170.01h-76.88v971.92h78.61v-165.47c27.85,46.71,62.23,85.28,103.22,115.64,57.88,42.93,125.38,64.34,202.56,64.34,2.32,0,4.61-.05,6.91-.08,2.3.04,4.59.08,6.91.08,77.18,0,144.69-21.41,202.56-64.34,40.99-30.36,75.37-68.93,103.22-115.64v165.47h78.61v-971.92h-76.88ZM2382.74-2099.7c-46.64-38.05-82.36-89.42-107.11-154.21-24.75-64.79-37.14-137.47-37.14-218.09s12.39-152.2,37.14-216.39c24.76-64.24,60.47-115.05,107.11-152.5,46.44-37.23,102.31-55.97,167.58-56.13,65.27.16,121.14,18.9,167.58,56.13,46.65,37.45,82.36,88.26,107.11,152.5,24.75,64.19,37.14,136.32,37.14,216.39s-12.39,153.3-37.14,218.09c-24.76,64.79-60.47,116.16-107.11,154.21-46.44,37.83-102.31,56.82-167.58,56.98-65.28-.17-121.14-19.15-167.58-56.98Z"/>
  <g>
    <rect class="st0" x="1061.07" y="-2520.61" width="685.73" height="69.97"/>
    <path class="st1" d="M1735.42-2956.6v170.01c-28.41-48.29-63.67-88-105.81-119.04-57.88-42.62-125.11-63.94-201.71-63.94-2.32,0-4.61.04-6.91.08-2.3-.04-4.59-.08-6.91-.08-76.6,0-143.83,21.31-201.71,63.94-42.14,31.05-77.39,70.75-105.81,119.04v-170.01h-76.88v971.92h78.61v-165.47c27.85,46.71,62.23,85.28,103.22,115.64,57.88,42.93,125.38,64.34,202.56,64.34,2.32,0,4.61-.05,6.91-.08,2.3.04,4.59.08,6.91.08,77.18,0,144.69-21.41,202.56-64.34,40.99-30.36,75.37-68.93,103.22-115.64v165.47h78.61v-971.92h-76.88ZM1253.42-2099.7c-46.64-38.05-82.36-89.42-107.11-154.21-24.75-64.79-37.14-137.47-37.14-218.09s12.39-152.2,37.14-216.39c24.76-64.24,60.47-115.05,107.11-152.5,46.44-37.23,102.31-55.97,167.58-56.13,65.27.16,121.14,18.9,167.58,56.13,46.65,37.45,82.36,88.26,107.11,152.5,24.75,64.19,37.14,136.32,37.14,216.39s-12.39,153.3-37.14,218.09c-24.76,64.79-60.47,116.16-107.11,154.21-46.44,37.83-102.31,56.82-167.58,56.98-65.28-.17-121.14-19.15-167.58-56.98Z"/>
  </g>
</svg>